<?xml version="1.0" encoding="UTF-8" standalone="no"?>
<svg width="466.66608pt" height="512.13019pt" version="1.1" viewBox="0 0 466.66608 512.13019" id="svg8" xmlns="http://www.w3.org/2000/svg" xmlns:svg="http://www.w3.org/2000/svg">
  <defs id="defs12" />
  <g id="g6" transform="translate(-116.83548,-23.337)">
    <path
       d="m 249.9,286.77 c -5.918,-5.918 -14.543,-8.2305 -22.629,-6.0625 -8.0859,2.168 -14.398,8.4805 -16.566,16.566 -2.168,8.0859 0.14453,16.711 6.0625,22.629 l 116.67,116.67 c 1.9961,1.9531 4.3789,3.4648 7,4.4336 2.9883,1.4492 6.2461,2.2461 9.5664,2.332 3.0234,-0.0703 6.0156,-0.62109 8.8672,-1.6328 2.8359,-1.2656 5.4375,-3.0039 7.6992,-5.1328 l 116.67,-116.67 c 5.918,-5.918 8.2305,-14.543 6.0625,-22.629 -2.168,-8.0859 -8.4805,-14.398 -16.566,-16.566 -8.0859,-2.168 -16.711,0.14453 -22.629,6.0625 l -76.77,77 V 46.67 c 0,-8.3359 -4.4453,-16.039 -11.664,-20.207 -7.2188,-4.168 -16.117,-4.168 -23.336,0 -7.2188,4.168 -11.664,11.871 -11.664,20.207 v 317.1 z"
       id="path2" />
    <path
       d="m 456.63,95.668 c -7.418,-3.8359 -16.32,-3.4219 -23.352,1.0859 -7.0312,4.5078 -11.121,12.426 -10.73,20.766 0.38672,8.3438 5.1953,15.848 12.617,19.68 37.039,19.32 66.523,50.508 83.742,88.574 17.219,38.062 21.168,80.801 11.223,121.38 -9.9492,40.574 -33.219,76.637 -66.086,102.42 -32.871,25.785 -73.438,39.797 -115.21,39.797 -41.773,0 -82.344,-14.012 -115.21,-39.797 -32.871,-25.785 -56.141,-61.848 -66.086,-102.42 -9.9453,-40.574 -5.9961,-83.312 11.223,-121.38 17.215,-38.066 46.703,-69.254 83.742,-88.574 5.8984,-2.6484 10.434,-7.625 12.523,-13.742 2.0898,-6.1211 1.5508,-12.832 -1.4961,-18.535 -3.0469,-5.703 -8.3242,-9.8906 -14.57,-11.555 -6.25,-1.6641 -12.91,-0.66406 -18.391,2.7656 -46.09,24.523 -82.625,63.793 -103.76,111.53 -21.133,47.738 -25.648,101.19 -12.82,151.8 12.828,50.605 42.258,95.449 83.582,127.36 41.324,31.906 92.152,49.031 144.36,48.637 52.208,-0.394 102.77,-18.285 143.61,-50.812 40.84,-32.527 69.586,-77.812 81.648,-128.61 12.062,-50.793 6.7383,-104.17 -15.113,-151.58 -21.855,-47.414 -58.98,-86.125 -105.44,-109.95 z"
       id="path4" />
  </g>
</svg>
